<svg viewBox="0 0 640 400" data-background-color="#ffffff" preserveAspectRatio="xMidYMid meet" height="400" width="640" xmlns="http://www.w3.org/2000/svg" xmlns:xlink="http://www.w3.org/1999/xlink"><rect width="640" height="400" x="0" y="0" opacity="1" fill="#ffffff" data-fill-palette-color="background" id="background"></rect><g id="tight-bounds" transform="matrix(1,0,0,1,160,20)"><svg viewBox="0 0 320 360" height="360" width="320"><g><svg></svg></g><g><svg viewBox="0 0 320 360" height="360" width="320"><g><path xmlns="http://www.w3.org/2000/svg" d="M20.961 227.22l3.726 4.658-1.863-6.056c-0.466-2.795-3.726 0.466-1.863 1.398M25.153 224.425c1.397 2.329 2.795 4.658 2.795 6.987 0 3.261 2.795 4.658 5.123 5.589-3.261-3.726-5.124-13.974-7.918-12.576M204.017 26.929c7.918 0 15.371-0.932 23.756 0.931 20.495 5.124 37.729 15.371 49.374 29.811l32.606 52.169c1.397 13.042 4.192 27.482 3.726 43.319 3.261 0 2.795-4.658 6.521-5.59-3.726 9.316-5.59 20.961-6.521 34.469-2.329-7.453 0-18.632 0.466-24.687-3.261 5.124-5.124 1.397-5.124-0.932 0.466-3.726-1.397-3.261-2.795-4.658-5.124-4.658-8.384-9.782-12.11-17.7 2.329-6.055 2.795-14.905-4.658-19.563-2.329-1.397-5.124-3.726-6.521-7.453-1.863-5.124-5.124-11.179-4.193-19.097 0.466-2.329-6.987 5.124-11.179 1.863-18.166-12.576-36.332-27.016-58.224-39.127-11.645 0-20.029-4.192-24.221-9.316-3.726-4.658-0.932-10.713 4.658-11.179 3.261 0 6.987-0.932 9.782 0.932 0.466-1.863 2.329-4.192 4.657-4.192M157.904 16.215l0.932 0.466c4.658 0.932 6.987 7.453 12.11 5.124 0 3.261 0.466 6.521-0.466 8.85-1.397 3.726-5.59 3.726-8.85 3.726-31.208-1.863-49.374 11.179-68.471 22.358-5.124 3.261-10.713 5.59-14.906 9.782-20.029 18.632-41.921 35.866-47.045 70.335l-4.192 38.195c-0.466 4.192-5.124 8.384-4.192 13.508l3.26 22.824c-3.261-3.261-5.124 0.932-4.192 2.795 0.466 1.397 2.329 6.055 5.124 1.863 3.726 6.987 7.453 20.495 12.576 26.55 15.837 18.632 36.332 35.4 53.101 52.169 4.192-0.932 7.453-0.932 8.384-3.727 1.397 2.795-1.397 5.59-3.726 6.056 7.453 4.658 15.837 8.85 27.016 9.781 14.44 0.932 27.948 3.261 40.524 6.522 6.521-1.863 13.042-2.795 20.029-3.261 2.329 0 3.726-3.726 6.521-4.658l0.466-4.658c2.795 4.192 2.329-1.397 0.466-4.192 3.261 2.795 4.192 5.124 5.589 6.987 0-1.397 3.726-6.521 3.727-0.466l0.931-6.055c1.397-0.932 1.863 5.124 3.261 0.931 1.397-4.192 4.192-0.932 6.987-2.329-0.932 1.863-0.466 5.59 2.794 3.261l3.727-3.261c2.329 5.59 6.055 3.261 7.918 2.329 20.495-13.042 40.99-28.413 60.553-43.784l-0.466 6.055 2.329-7.453c2.329 2.329 4.192 0.466 5.124-0.931 2.795-4.658 6.521-9.316 12.577-13.508-7.453 20.029-16.303 35.866-27.482 48.908l-4.658 5.59c0 3.261-0.932 7.453-4.658 7.918-1.863 0.466-5.59-0.932-8.384 1.863-1.397 1.863 3.261 5.59-0.466 2.795-3.261-2.329-6.521 0-10.248 0.932-2.795 0.932 1.863 3.726 2.795 5.589 0.932 1.863 1.863 3.726 1.398 6.056l-5.124-5.59c-6.055 3.261-9.782 9.316-14.906 13.974-2.329 1.863-1.397 5.124-1.397 7.918-3.261 0-6.987-0.932-8.85 0.932-1.397 1.863-0.932 4.658-0.932 7.453-4.658-0.466-5.124-7.453-9.315-6.056-4.192 0.932-8.85 1.397-12.577 3.727 2.795 5.59-4.658 2.329-3.726 3.26-6.987-4.192-13.042-7.453-20.495-4.658-15.837-5.124-35.4-2.795-49.84-0.931 0-2.329 0.466-4.658-0.466-5.124-0.932 2.329-3.726 1.397-3.26 1.397-8.85-6.055-17.7-9.782-27.016-14.905-8.384 0.932-16.303-3.261-18.632-5.59-6.521-6.055-13.974-2.795-20.029-4.192-13.042-3.261-17.7-16.769-19.098-26.084-0.932-4.658-4.658-6.521-6.055-6.056-6.055-19.563-15.371-37.263-22.824-55.429-1.863-4.658-1.397-9.316-1.397-14.44 2.329 0.932 4.658 0.466 4.192-2.794-2.329-15.371-7.918-27.016-13.974-38.195 3.261-15.837 3.726-34.469 11.179-48.443 6.521-12.576 18.632-19.098 27.016-29.811 2.795-3.726 2.795-8.85 5.59-12.11 9.316-9.316 18.632-19.098 28.879-27.482 4.658-3.726 10.247 0 17.234-1.397 2.329-8.384 11.645-15.837 20.495-13.508 3.726 0.932 11.179-8.85 13.508-9.782 3.726-1.397 1.863 3.726 1.863 6.987 8.85-6.987 20.961-10.713 32.14-14.906" fill="#000000" fill-rule="nonzero" stroke="none" stroke-width="1" stroke-linecap="butt" stroke-linejoin="miter" stroke-miterlimit="10" stroke-dasharray="" stroke-dashoffset="0" font-family="none" font-weight="none" font-size="none" text-anchor="none" style="mix-blend-mode: normal" data-fill-palette-color="tertiary"></path></g><g transform="matrix(1,0,0,1,64,172.41663019693655)"><svg viewBox="0 0 192 15.166739606126916" height="15.166739606126916" width="192"><g><svg viewBox="0 0 192 15.166739606126916" height="15.166739606126916" width="192"><g><svg viewBox="0 0 192 15.166739606126916" height="15.166739606126916" width="192"><g><svg viewBox="0 0 192 15.166739606126916" height="15.166739606126916" width="192"><g><svg viewBox="0 0 192 15.166739606126916" height="15.166739606126916" width="192"><g><svg viewBox="0 0 192 15.166739606126916" height="15.166739606126916" width="192"><g transform="matrix(1,0,0,1,0,0)"><svg width="192" viewBox="1.149999976158142 -35.5 456.9599914550781 36.099998474121094" height="15.166739606126916" data-palette-color="#000000"><path d="M30.9 0L26.5 0 23-10.3 8.9-10.3 5.4 0 1.15 0 13.35-34.9 18.7-34.9 30.9 0ZM21.95-14L16.05-31 15.8-31 9.9-14 21.95-14ZM40.9-15L40.9 0 36.7 0 36.7-34.9 50.6-34.9Q55.2-34.9 57.77-32.35 60.35-29.8 60.35-25L60.35-25Q60.35-21.15 58.57-18.68 56.8-16.2 53.35-15.4L53.35-15.4 61.35 0 56.6 0 49.05-15 40.9-15ZM40.9-18.6L50.6-18.6Q53.1-18.6 54.47-19.9 55.85-21.2 55.85-23.6L55.85-23.6 55.85-26.2Q55.85-28.6 54.47-29.9 53.1-31.2 50.6-31.2L50.6-31.2 40.9-31.2 40.9-18.6ZM67.95-34.9L84.15-34.9 84.15-9.05Q84.15-6.85 83.42-5.05 82.7-3.25 81.37-2 80.05-0.75 78.2-0.08 76.35 0.6 74.15 0.6L74.15 0.6Q70.1 0.6 67.62-1.58 65.15-3.75 64.45-7.35L64.45-7.35 68.25-8.25Q68.75-6 70.15-4.58 71.55-3.15 74.25-3.15L74.25-3.15Q76.95-3.15 78.45-4.8 79.95-6.45 79.95-9.8L79.95-9.8 79.95-31.2 67.95-31.2 67.95-34.9ZM92.94-34.9L97.14-34.9 97.14-13.3Q97.14-8.3 98.99-5.73 100.84-3.15 105.49-3.15L105.49-3.15Q110.14-3.15 111.99-5.73 113.84-8.3 113.84-13.3L113.84-13.3 113.84-34.9 118.04-34.9 118.04-14.3Q118.04-10.5 117.37-7.7 116.69-4.9 115.19-3.05 113.69-1.2 111.27-0.3 108.84 0.6 105.34 0.6L105.34 0.6Q101.84 0.6 99.47-0.3 97.09-1.2 95.64-3.05 94.19-4.9 93.57-7.7 92.94-10.5 92.94-14.3L92.94-14.3 92.94-34.9ZM148.29 0L135.54-21.3 131.34-29.05 131.19-29.05 131.19 0 127.09 0 127.09-34.9 131.94-34.9 144.69-13.6 148.89-5.85 149.04-5.85 149.04-34.9 153.14-34.9 153.14 0 148.29 0ZM201.44 0L201.44-29.4 201.19-29.4 198.24-23.55 189.89-8.35 181.54-23.55 178.59-29.4 178.34-29.4 178.34 0 174.24 0 174.24-34.9 179.84-34.9 189.84-16.1 190.09-16.1 200.14-34.9 205.54-34.9 205.54 0 201.44 0ZM214.58-34.9L218.78-34.9 218.78-13.3Q218.78-8.3 220.63-5.73 222.48-3.15 227.13-3.15L227.13-3.15Q231.78-3.15 233.63-5.73 235.48-8.3 235.48-13.3L235.48-13.3 235.48-34.9 239.68-34.9 239.68-14.3Q239.68-10.5 239.01-7.7 238.33-4.9 236.83-3.05 235.33-1.2 232.91-0.3 230.48 0.6 226.98 0.6L226.98 0.6Q223.48 0.6 221.11-0.3 218.73-1.2 217.28-3.05 215.83-4.9 215.21-7.7 214.58-10.5 214.58-14.3L214.58-14.3 214.58-34.9ZM267.78 0L248.73 0 248.73-34.9 252.93-34.9 252.93-3.7 267.78-3.7 267.78 0ZM293.13-31.2L282.03-31.2 282.03 0 277.83 0 277.83-31.2 266.73-31.2 266.73-34.9 293.13-34.9 293.13-31.2ZM310.88 0L296.88 0 296.88-3.5 301.78-3.5 301.78-31.4 296.88-31.4 296.88-34.9 310.88-34.9 310.88-31.4 305.98-31.4 305.98-3.5 310.88-3.5 310.88 0ZM322.72 0L318.52 0 318.52-34.9 332.42-34.9Q337.12-34.9 339.65-32.23 342.17-29.55 342.17-24.9L342.17-24.9Q342.17-20.25 339.65-17.57 337.12-14.9 332.42-14.9L332.42-14.9 322.72-14.9 322.72 0ZM322.72-31.2L322.72-18.6 332.42-18.6Q334.92-18.6 336.3-19.9 337.67-21.2 337.67-23.6L337.67-23.6 337.67-26.2Q337.67-28.6 336.3-29.9 334.92-31.2 332.42-31.2L332.42-31.2 322.72-31.2ZM367.87 0L348.82 0 348.82-34.9 353.02-34.9 353.02-3.7 367.87-3.7 367.87 0ZM401.07 0L396.67 0 393.17-10.3 379.07-10.3 375.57 0 371.32 0 383.52-34.9 388.87-34.9 401.07 0ZM392.12-14L386.22-31 385.97-31 380.07-14 392.12-14ZM416.67 0.6L416.67 0.6Q412.42 0.6 409.42-1.03 406.42-2.65 404.32-5.5L404.32-5.5 407.42-8.1Q409.27-5.65 411.52-4.38 413.77-3.1 416.82-3.1L416.82-3.1Q420.57-3.1 422.54-4.9 424.52-6.7 424.52-9.7L424.52-9.7Q424.52-12.2 423.02-13.55 421.52-14.9 418.07-15.7L418.07-15.7 415.22-16.35Q410.42-17.45 407.89-19.68 405.37-21.9 405.37-25.95L405.37-25.95Q405.37-28.25 406.22-30.05 407.07-31.85 408.59-33.05 410.12-34.25 412.24-34.88 414.37-35.5 416.92-35.5L416.92-35.5Q420.87-35.5 423.69-34.05 426.52-32.6 428.47-29.8L428.47-29.8 425.32-27.5Q423.87-29.5 421.82-30.65 419.77-31.8 416.72-31.8L416.72-31.8Q413.37-31.8 411.44-30.38 409.52-28.95 409.52-26.1L409.52-26.1Q409.52-23.6 411.14-22.33 412.77-21.05 416.07-20.3L416.07-20.3 418.92-19.65Q424.07-18.5 426.37-16.15 428.67-13.8 428.67-9.9L428.67-9.9Q428.67-7.5 427.84-5.55 427.02-3.6 425.47-2.25 423.92-0.9 421.69-0.15 419.47 0.6 416.67 0.6ZM458.11-31.2L447.01-31.2 447.01 0 442.81 0 442.81-31.2 431.71-31.2 431.71-34.9 458.11-34.9 458.11-31.2Z" opacity="1" transform="matrix(1,0,0,1,0,0)" fill="#000000" class="undefined-text-0" data-fill-palette-color="primary" id="text-0"></path></svg></g></svg></g></svg></g></svg></g><g></g></svg></g></svg></g></svg></g></svg></g><defs></defs></svg><rect width="320" height="360" fill="none" stroke="none" visibility="hidden"></rect></g></svg>